<svg width="20" height="20" viewBox="0 0 20 20" xmlns="http://www.w3.org/2000/svg"><title>icons/social/codepen</title><desc>Created with Sketch.</desc><path d="M16.995 7.789l-.005-.026-.011-.05-.01-.029-.015-.044-.014-.029-.021-.04-.017-.028-.025-.037-.021-.026-.03-.033-.024-.023-.034-.029-.027-.021-.01-.007-6.398-4.266c-.202-.135-.465-.135-.668 0l-6.398 4.266-.01.007-.027.021-.034.029-.024.023-.03.033-.021.026-.025.037-.017.028-.021.04-.013.029-.016.044-.009.029-.011.05-.005.026-.006.078v4.266l.006.079.005.026.011.05.009.029.016.044.013.029.021.04.017.028.025.036.021.026.03.032.024.024.034.029.027.021.01.007 6.398 4.266c.101.067.217.101.334.101.116 0 .233-.034.334-.101l6.398-4.266.01-.007.027-.021.034-.029.024-.024.03-.032.021-.026.025-.036.017-.028.021-.04.014-.029.015-.044.01-.029.011-.05.005-.026.005-.079v-4.266l-.005-.078zm-6.393-3.063l4.714 3.142-2.105 1.408-2.608-1.745v-2.806zm-1.203 0v2.806l-2.608 1.745-2.106-1.408 4.714-3.142zm-5.195 4.267l1.505 1.007-1.505 1.007v-2.013zm5.195 6.281l-4.714-3.142 2.106-1.408 2.608 1.744v2.806zm.602-3.851l-2.128-1.423 2.128-1.423 2.128 1.423-2.128 1.423zm.602 3.851v-2.806l2.608-1.744 2.105 1.408-4.714 3.142zm5.195-4.267l-1.505-1.007 1.505-1.007v2.013z" fill="#fff"/></svg>