<svg width="20" height="20" viewBox="0 0 20 20" xmlns="http://www.w3.org/2000/svg"><title>icons/social/github</title><desc>Created with Sketch.</desc><path d="M10 3c-3.865 0-7 3.213-7 7.178 0 3.171 2.005 5.861 4.788 6.81.35.066.478-.156.478-.346l-.01-1.221c-1.947.434-2.358-.962-2.358-.962-.318-.829-.777-1.05-.777-1.05-.636-.445.048-.436.048-.436.702.051 1.072.74 1.072.74.625 1.097 1.638.78 2.037.596.063-.464.245-.78.444-.96-1.554-.181-3.189-.797-3.189-3.547 0-.784.273-1.424.721-1.926-.072-.182-.312-.911.068-1.899 0 0 .588-.193 1.925.736.559-.159 1.157-.239 1.753-.242.595.003 1.193.083 1.753.242 1.336-.929 1.923-.736 1.923-.736.382.988.142 1.718.07 1.899.449.502.72 1.143.72 1.926 0 2.757-1.637 3.364-3.196 3.542.251.222.475.659.475 1.329 0 .96-.009 1.733-.009 1.969 0 .192.126.415.481.345 2.779-.951 4.783-3.639 4.783-6.809 0-3.965-3.134-7.178-7-7.178" fill="#fff"/></svg>