<svg width="20" height="20" viewBox="0 0 20 20" xmlns="http://www.w3.org/2000/svg"><title>icons/social/twitter</title><desc>Created with Sketch.</desc><path d="M16.272 6.003c.622-.395 1.098-1.022 1.323-1.768-.582.366-1.225.632-1.912.775-.548-.621-1.33-1.009-2.196-1.009-1.661 0-3.008 1.432-3.008 3.198 0 .251.026.494.077.728-2.501-.134-4.718-1.405-6.203-3.342-.259.474-.407 1.024-.407 1.609 0 1.109.531 2.088 1.339 2.661-.492-.016-.957-.161-1.364-.399v.039c0 1.55 1.037 2.843 2.415 3.135-.252.075-.518.113-.793.113-.194 0-.383-.019-.566-.057.383 1.27 1.494 2.195 2.811 2.22-1.03.858-2.328 1.37-3.737 1.37-.243 0-.483-.015-.718-.044 1.332.906 2.914 1.435 4.613 1.435 5.535 0 8.561-4.872 8.561-9.098l-.008-.414c.588-.451 1.098-1.014 1.501-1.655-.539.254-1.119.426-1.728.503z" fill="#fff"/></svg>